@startuml
skinparam backgroundColor white

title Teste 2

class ProductChangeListener{
validatorEngine: ValidatorEngine
markerViewConverter: MarketViewConverter
marketProcessor: MarketProcessor
}

interface MarketViewUpdateListener{
onMarketViewUpdates()
}

interface MarketProcessorPort{
}

MarketViewUpdateListener <|.. ProductChangeListener
ValidatorEngine <--o ProductChangeListener
MarketViewConverter <--o ProductChangeListener
MarketProcessorPort <--o ProductChangeListener
Teste3 <--o Teste
Teste <--o Teste2

@enduml