@startuml
skinparam backgroundColor white

title ProductListener

class ProductChangeListener{
validatorEngine: ValidatorEngine
markerViewConverter: MarketViewConverter
marketProcessor: MarketProcessor
}

interface MarketViewUpdateListener{
onMarketViewUpdates()
}

interface MarketProcessorPort{
}

MarketViewUpdateListener <|.. ProductChangeListener
ValidatorEngine <--o ProductChangeListener
MarketViewConverter <--o ProductChangeListener
MarketProcessorPort <--o ProductChangeListener
Ruben <--o Mauro
Fabio <--o Marta

@enduml